<svg width="20" height="20" viewBox="0 0 20 20" fill="none" xmlns="http://www.w3.org/2000/svg">
<path d="M17.4992 0.155823H3.09922C1.74922 0.155823 0.699219 1.24249 0.699219 2.55398V13.3457C0.699219 14.6946 1.74922 15.7438 3.09922 15.7438H6.69922V18.8914C6.69922 19.2661 7.11172 19.4909 7.41172 19.2661L12.0992 15.7438H17.4992C18.8117 15.7438 19.8992 14.6946 19.8992 13.3457V2.55398C19.8992 1.24249 18.8117 0.155823 17.4992 0.155823ZM12.6992 5.17696C13.2242 5.17696 13.6742 5.62661 13.6742 6.15121C13.6742 6.71328 13.2242 7.16293 12.6992 7.16293C12.1367 7.16293 11.6867 6.71328 11.6867 6.15121C11.6867 5.62661 12.1367 5.17696 12.6992 5.17696ZM7.89922 5.17696C8.42422 5.17696 8.87422 5.62661 8.87422 6.15121C8.87422 6.71328 8.42422 7.16293 7.89922 7.16293C7.33672 7.16293 6.88672 6.71328 6.88672 6.15121C6.88672 5.62661 7.33672 5.17696 7.89922 5.17696ZM14.0492 10.4604C13.1117 11.5471 11.7242 12.1466 10.2992 12.1466C8.83672 12.1466 7.44922 11.5471 6.51172 10.4604C6.32422 10.1981 6.32422 9.82339 6.58672 9.59856C6.84922 9.37373 7.22422 9.4112 7.44922 9.6735C8.12422 10.4979 9.17422 10.9475 10.2617 10.9475C11.3867 10.9475 12.3992 10.4979 13.1117 9.6735C13.3367 9.4112 13.7117 9.37373 13.9742 9.59856C14.2367 9.82339 14.2367 10.1981 14.0492 10.4604Z" fill="#737373"/>
</svg>
