<svg width="14" height="13" viewBox="0 0 14 13" fill="none" xmlns="http://www.w3.org/2000/svg">
<path d="M11.5156 0.298306L6.87521 4.93869L2.23482 0.298306C2.11881 0.182296 1.8868 0.182296 1.77079 0.298306L0.842708 1.22638C0.697696 1.3714 0.726699 1.57441 0.842708 1.69042L5.4831 6.33081L0.842708 10.9712C0.697696 11.1162 0.726699 11.3192 0.842708 11.4352L1.77079 12.3633C1.9158 12.5083 2.08981 12.5083 2.23482 12.3633L6.87521 7.72293L11.5156 12.3633C11.6606 12.5083 11.8346 12.5083 11.9796 12.3633L12.9077 11.4352C13.0237 11.3192 13.0527 11.1162 12.9077 10.9712L8.26733 6.33081L12.9077 1.69042C13.0237 1.57441 13.0527 1.3714 12.9077 1.22638L11.9796 0.298306C11.8636 0.182296 11.6316 0.182296 11.5156 0.298306Z" fill="#2E3A59"/>
</svg>
