<svg width="20" height="20" viewBox="0 0 20 20" fill="none" xmlns="http://www.w3.org/2000/svg">
<path d="M9.99986 2.02089C13.4205 2.02089 16.3244 4.3832 17.1088 7.59682L15.92 6.75812L15.2431 7.71761L18.0322 9.68523L19.9999 6.89621L19.0404 6.21928L18.2535 7.33462C17.3492 3.59648 13.9752 0.84668 9.99986 0.84668C7.73152 0.84668 5.599 1.73 3.99506 3.33393C2.39113 4.93786 1.50781 7.07042 1.50781 9.33872H2.68202C2.68202 5.30367 5.9648 2.02089 9.99986 2.02089Z" fill="#754845"/>
<path d="M10 17.9793C6.57937 17.9793 3.67543 15.617 2.89106 12.4034L4.07983 13.242L4.75672 12.2826L1.96766 10.3149L0 13.1039L0.959486 13.7809L1.74636 12.6655C2.65074 16.4037 6.02475 19.1535 10 19.1535C12.2684 19.1535 14.4009 18.2702 16.0048 16.6662C17.6088 15.0623 18.4921 12.9297 18.4921 10.6615H17.3179C17.3179 14.6965 14.0351 17.9793 10 17.9793Z" fill="#754845"/>
<path d="M9.9991 5.77246L9.62699 6.07736C9.50985 6.17338 6.75781 8.45565 6.75781 10.8142C6.75781 12.6015 8.21184 14.0555 9.99914 14.0555C11.7864 14.0555 13.2404 12.6015 13.2404 10.8142C13.2404 8.45561 10.4884 6.17338 10.3712 6.07736L9.9991 5.77246ZM12.0662 10.8142C12.0662 11.954 11.1389 12.8813 9.99914 12.8813C8.85933 12.8813 7.93202 11.954 7.93202 10.8142C7.93202 9.54492 9.20048 8.07407 9.99914 7.31698C10.7978 8.07407 12.0662 9.54492 12.0662 10.8142Z" fill="#754845"/>
</svg>
