<svg width="21" height="20" viewBox="0 0 21 20" fill="none" xmlns="http://www.w3.org/2000/svg">
<path d="M11.4576 0.765263L14.1101 6.12911C14.169 6.30594 14.3458 6.42383 14.5227 6.42383L20.417 7.30798C20.8886 7.36692 21.0654 7.95636 20.7117 8.25107L16.4089 12.4361C16.291 12.5539 16.232 12.7308 16.232 12.9076L17.2341 18.8019C17.293 19.2735 16.8215 19.6271 16.4089 19.3914L11.104 16.621C10.9271 16.5621 10.7503 16.5621 10.5735 16.621L5.26857 19.3914C4.85596 19.6271 4.38442 19.2735 4.44336 18.8019L5.4454 12.9076C5.50434 12.7308 5.4454 12.5539 5.26857 12.4361L0.9657 8.25107C0.78887 7.89741 0.9657 7.36692 1.43725 7.30798L7.39053 6.42383C7.56736 6.42383 7.74419 6.30594 7.80313 6.12911L10.4556 0.765263C10.6324 0.35266 11.2218 0.35266 11.4576 0.765263Z" fill="#737373"/>
</svg>
