<svg width="20" height="13" viewBox="0 0 20 13" fill="none" xmlns="http://www.w3.org/2000/svg">
<path d="M19.3103 0.666504C19.3103 0.666504 12.5059 1.35616 10 1.35616C7.49405 1.35616 0.689655 0.666504 0.689655 0.666504L0 6.18374C3.21839 7.79294 5.97701 9.86191 8.27586 12.3906H11.7241C14.023 9.86191 16.7816 7.79294 20 6.18374L19.3103 0.666504Z" fill="#BDBDBD"/>
<path d="M19.3103 0.666504C19.3103 0.666504 12.5059 1.35616 10 1.35616C7.49405 1.35616 0.689655 0.666504 0.689655 0.666504L0 6.18374H1.72414C5.34254 6.18374 8.27586 8.96267 8.27586 12.3906H11.7241C11.7241 8.96267 14.6575 6.18374 18.2759 6.18374H20L19.3103 0.666504Z" fill="#E0E0E0"/>
</svg>
