<svg width="18" height="21" viewBox="0 0 18 21" fill="none" xmlns="http://www.w3.org/2000/svg">
<path d="M8.22422 19.6267C8.61797 20.1989 9.53672 20.1989 9.93047 19.6267C16.5659 13.9328 17.4992 11.8895 17.4992 8.70202C17.4992 4.37027 13.7367 0.855835 9.09922 0.855835C4.41797 0.855835 0.699219 4.37027 0.699219 8.70202C0.699219 11.8895 1.63255 14.3687 8.22422 19.6267ZM9.09922 11.9713C7.13047 11.9713 5.59922 10.541 5.59922 8.70202C5.59922 6.90394 7.13047 5.43278 9.09922 5.43278C11.0242 5.43278 12.5992 6.90394 12.5992 8.70202C12.5992 10.541 11.0242 11.9713 9.09922 11.9713Z" fill="#737373"/>
</svg>
