<svg width="59" height="51" viewBox="0 0 59 51" fill="none" xmlns="http://www.w3.org/2000/svg">
<path d="M42.2279 38.1838C32.4949 47.9168 26.5051 47.9168 16.7721 38.1838C7.03901 28.4507 7.03901 22.461 16.7721 12.7279C26.5051 2.99485 32.4949 2.99485 42.2279 12.7279C51.961 22.461 51.961 28.4507 42.2279 38.1838Z" fill="#0C866C"/>
<path d="M37.4219 24.3464H30.8594V17.7839C30.8594 17.6199 30.6953 17.4558 30.5312 17.4558H29.2188C29.0137 17.4558 28.8906 17.6199 28.8906 17.7839V24.3464H22.3281C22.123 24.3464 22 24.5105 22 24.6746V25.9871C22 26.1921 22.123 26.3152 22.3281 26.3152H28.8906V32.8777C28.8906 33.0828 29.0137 33.2058 29.2188 33.2058H30.5312C30.6953 33.2058 30.8594 33.0828 30.8594 32.8777V26.3152H37.4219C37.5859 26.3152 37.75 26.1921 37.75 25.9871V24.6746C37.75 24.5105 37.5859 24.3464 37.4219 24.3464Z" fill="white"/>
</svg>
